<svg width="27967" height="32768" viewBox="0 0 27967 32768" fill="none" xmlns="http://www.w3.org/2000/svg">
<g clip-path="url(#clip0_3_4)">
<path d="M10241.8 3386.37C8636.29 4787.8 8465.31 4943.23 8424.73 5055.35C8378.36 5170.01 8375.47 6092.41 8375.47 16715.3C8375.47 27136.8 8381.26 28263 8421.84 28387.9C8465.31 28520.4 8517.47 28571.4 9920.15 29799.5L11375 31073.5L11389.5 25467.8C11404 20318.2 11406.9 19857 11453.2 19785.7C11479.3 19742.3 11569.2 19658.3 11656.1 19594.6C11740.1 19530.9 12122.7 19237.8 12505.2 18944.8C13290.6 18338.4 13383.4 18272.1 13412.3 18307.8C13594.9 18529.5 13748.5 18766.4 13792 18891.3C13847.1 19044.2 13849.9 19194.5 13849.9 25554.5C13852.8 29134.5 13858.6 32067.3 13864.4 32074.9C13870.2 32080 13907.9 32069.8 13945.6 32054.5C14058.6 32003.6 16722 29654.3 16788.6 29544.7L16852.4 29442.8V23849.8C16852.4 18491.2 16849.5 18251.7 16800.2 18121.8C16727.7 17943.4 16513.3 17739.6 16281.4 17632.6C16081.5 17540.8 15812 17385.4 15380.1 17117.8L15099 16942L15455.5 16669.4C15649.7 16519.1 16026.4 16233.7 16290.1 16032.4C16553.9 15833.6 16788.6 15640 16811.8 15601.8C16872.7 15502.4 16872.7 6255.48 16811.8 6102.6C16779.9 6023.61 16310.4 5595.54 14551.3 4043.77C13331.2 2965.94 12258.9 2028.26 12172 1962.01L12012.6 1842.25L10241.8 3386.37ZM13221.1 6041.45C13542.8 6337.02 13818.1 6596.92 13829.7 6619.85C13852.8 6678.46 13858.6 12220.5 13835.5 13657.6L13815.2 14791.5L13693.5 14895.9C13499.3 15061.6 11601 16529.2 11522.8 16575.1C11482.2 16598 11435.8 16610.8 11418.5 16600.6C11398.2 16590.4 11389.5 15046.3 11389.5 11637C11389.5 6971.49 11392.4 6683.56 11441.6 6607.11C11493.8 6523.03 12571.9 5503.81 12609.6 5503.81C12621.2 5503.81 12896.5 5745.87 13221.1 6041.45Z" fill="white"/>
<path d="M3529.87 9267.28L0 12370.8V16728V21085.2L3558.85 24206.5L7114.8 27327.9L7123.49 23003.9C7129.29 18789.4 7129.29 18674.7 7074.23 18549.8C7042.35 18478.5 6865.56 18221.2 6682.98 17979.1C6497.51 17737 6346.81 17517.9 6346.81 17489.9C6346.81 17456.7 6491.71 17311.5 6720.66 17107.6C7062.63 16807 7094.51 16768.8 7123.49 16651.5C7166.97 16470.6 7132.19 6166.3 7088.72 6166.3C7071.33 6166.3 5468.69 7562.63 3529.87 9267.28ZM5361.46 12839.7C5361.46 15601.7 5375.95 15395.4 5161.49 15713.9C5013.69 15940.6 4865.89 16070.6 4668.82 16149.6C4521.01 16208.2 4480.44 16213.3 4202.22 16205.6C4034.13 16200.5 3703.75 16198 3469.01 16203.1C3115.44 16208.2 3028.5 16203.1 2967.64 16170L2898.09 16129.2V14241.1C2898.09 12138.9 2883.59 12289.3 3109.65 12113.5C3179.2 12057.4 3674.77 11652.3 4213.82 11211.4C5118.02 10472.5 5277.41 10347.7 5341.17 10345.1C5352.76 10345.1 5361.46 11466.3 5361.46 12839.7ZM4686.2 18335.8C4810.82 18366.4 5231.04 19102.8 5286.11 19390.7C5364.36 19795.8 5378.85 19984.4 5352.76 20409.9C5341.17 20626.5 5338.27 21189.6 5346.97 21661C5358.56 22450.9 5355.66 22519.7 5312.19 22535C5242.64 22560.5 3034.3 20608.7 2956.05 20453.2C2903.88 20353.9 2898.09 20277.4 2898.09 19380.5C2898.09 18516.7 2903.88 18409.7 2947.35 18366.4C2990.82 18323.1 3054.58 18320.5 3808.08 18320.5C4257.29 18320.5 4651.43 18328.2 4686.2 18335.8Z" fill="white"/>
<path d="M18113 17803.3L18115.9 28347.1L23039.8 24002.7L27963.6 19658.3L27966.5 17798.2V15935.5L23063 11606.4C20367.7 9223.97 18150.7 7269.61 18136.2 7267.06C18124.6 7261.96 18113 12003.9 18113 17803.3ZM22318.2 14034.7C22932.5 14577.4 23460 15061.6 23491.9 15110C23541.1 15194.1 23544 15303.6 23546.9 17237.6C23549.8 18358.7 23541.1 19314.3 23526.7 19362.7C23506.4 19428.9 23233.9 19683.7 22350 20463.4C21715.4 21024 21182.1 21480.1 21161.8 21480.1C21135.7 21480.1 21127 20555.2 21127 17263.1C21127 13917.5 21135.7 13046 21161.8 13046C21182.1 13046 21703.8 13489.4 22318.2 14034.7Z" fill="white"/>
</g>
<defs>
<clipPath id="clip0_3_4">
<rect width="42496" height="49792" fill="white" transform="scale(0.658098)"/>
</clipPath>
</defs>
</svg>
