<svg width="27072" height="29585" viewBox="0 0 27072 29585" fill="none" xmlns="http://www.w3.org/2000/svg">
<path d="M9914.24 1510.95C8360.06 2882.27 8194.54 3034.36 8155.27 3144.07C8110.38 3256.27 8107.57 4158.85 8107.57 14553.5C8107.57 24751.1 8113.18 25853.2 8152.46 25975.3C8194.54 26105 8245.04 26154.8 9602.85 27356.6L11011.2 28603.3L11025.2 23118C11039.2 18079 11042 17627.7 11086.9 17557.9C11112.1 17515.5 11199.1 17433.2 11283.3 17370.9C11364.6 17308.6 11734.9 17021.8 12105.3 16735.1C12865.5 16141.7 12955.3 16076.9 12983.3 16111.8C13160.1 16328.7 13308.8 16560.6 13350.8 16682.8C13404.1 16832.4 13407 16979.5 13407 23202.8C13409.8 26705.9 13415.4 29575.7 13421 29583.2C13426.6 29588.1 13463.1 29578.2 13499.5 29563.2C13608.9 29513.3 16187.1 27214.5 16251.6 27107.3L16313.3 27007.6V21534.7C16313.3 16291.3 16310.5 16056.9 16262.8 15929.8C16192.7 15755.2 15985.1 15555.8 15760.7 15451.1C15567.1 15361.3 15306.2 15209.2 14888.2 14947.4L14616.1 14775.4L14961.1 14508.6C15149.1 14361.5 15513.8 14082.2 15769.1 13885.3C16024.4 13690.8 16251.6 13501.3 16274.1 13463.9C16333 13366.6 16333 4318.42 16274.1 4168.82C16243.2 4091.53 15788.7 3672.65 14085.9 2154.22C12904.8 1099.55 11866.8 182.011 11782.6 117.185L11628.3 -0.000583476L9914.24 1510.95ZM12798.2 4108.98C13109.6 4398.2 13376.1 4652.52 13387.3 4674.96C13409.8 4732.31 13415.4 10155.3 13392.9 11561.5L13373.3 12671L13255.5 12773.2C13067.5 12935.3 11230 14371.5 11154.2 14416.3C11115 14438.8 11070.1 14451.2 11053.2 14441.3C11033.6 14431.3 11025.2 12920.3 11025.2 9584.29C11025.2 5019.04 11028 4737.29 11075.7 4662.49C11126.2 4580.21 12169.8 3582.89 12206.2 3582.89C12217.5 3582.89 12484 3819.75 12798.2 4108.98Z" fill="#BBB6B8" fill-opacity="0.99"/>
<path d="M3416.96 7265.51L0 10302.4V14565.9V18829.5L3445.02 21883.8L6887.23 24938.1L6895.65 20707C6901.26 16583 6901.26 16470.8 6847.95 16348.6C6817.1 16278.8 6645.97 16027 6469.23 15790.1C6289.68 15553.3 6143.8 15338.9 6143.8 15311.4C6143.8 15279 6284.07 15136.9 6505.7 14937.4C6836.73 14643.2 6867.59 14605.8 6895.65 14491.1C6937.73 14314.1 6904.06 4231.15 6861.98 4231.15C6845.15 4231.15 5293.77 5597.48 3416.96 7265.51ZM5189.97 10761.1C5189.97 13463.9 5204 13261.9 4996.4 13573.6C4853.32 13795.5 4710.25 13922.7 4519.48 13999.9C4376.41 14057.3 4337.13 14062.3 4067.81 14054.8C3905.1 14049.8 3585.29 14047.3 3358.05 14052.3C3015.79 14057.3 2931.63 14052.3 2872.72 14019.9L2805.39 13980V12132.5C2805.39 10075.5 2791.36 10222.6 3010.18 10050.5C3077.51 9995.69 3557.23 9599.25 4079.04 9167.91C4954.32 8444.85 5108.61 8322.68 5170.33 8320.18C5181.55 8320.18 5189.97 9417.24 5189.97 10761.1ZM4536.31 16139.2C4656.95 16169.1 5063.73 16889.7 5117.03 17171.4C5192.77 17567.9 5206.8 17752.4 5181.55 18168.8C5170.33 18380.7 5167.53 18931.7 5175.94 19393C5187.16 20165.9 5184.36 20233.2 5142.28 20248.2C5074.95 20273.1 2937.24 18363.2 2861.5 18211.2C2811 18113.9 2805.39 18039.1 2805.39 17161.5C2805.39 16316.2 2811 16211.5 2853.08 16169.1C2895.16 16126.7 2956.88 16124.3 3686.28 16124.3C4121.12 16124.3 4502.65 16131.7 4536.31 16139.2Z" fill="#BBB6B8" fill-opacity="0.99"/>
<path d="M17533.7 15618.1L17536.5 25935.4L22302.8 21684.3L27069.2 17433.2L27072 15613.1V13790.5L22325.3 9554.37C19716.3 7223.13 17570.1 5310.76 17556.1 5308.26C17544.9 5303.28 17533.7 9943.33 17533.7 15618.1ZM21604.3 11930.5C22199 12461.6 22709.6 12935.3 22740.5 12982.7C22788.2 13065 22791 13172.2 22793.8 15064.6C22796.6 16161.7 22788.2 17096.6 22774.1 17144C22754.5 17208.8 22490.8 17458.2 21635.2 18221.1C21020.8 18769.7 20504.6 19216 20484.9 19216C20459.7 19216 20451.3 18310.9 20451.3 15089.5C20451.3 11815.8 20459.7 10963.1 20484.9 10963.1C20504.6 10963.1 21009.6 11396.9 21604.3 11930.5Z" fill="#BBB6B8" fill-opacity="0.99"/>
</svg>
